# xmcd
#
# Track frame offsets:
#	150
#	2987
#	22202
#	45055
#	64250
#	84077
#
# Disc length: 1253 seconds
#
# Revision: 1
# Processed by: cddbd v1.5.1PL0 Copyright (c) Steve Scherf et al.
# Submitted via: CDex 1.50Beta5
#
DISCID=3d04e306
DTITLE=Iyiyim - あいのわ
DYEAR=2003
DGENRE=Pop
TTITLE0=Introduction〜あいのわ〜
TTITLE1=はじめよう
TTITLE2=あと５分で
TTITLE3=It's Pride
TTITLE4=運命
TTITLE5=真夜中のワルツ
EXTD=
EXTT0=
EXTT1=
EXTT2=
EXTT3=
EXTT4=
EXTT5=
PLAYORDER=
